<svg version="1.1" id="Layer_1" xmlns="http://www.w3.org/2000/svg" xmlns:xlink="http://www.w3.org/1999/xlink" x="0px" y="0px"
	 width="100%" viewBox="0 0 64 64" enable-background="new 0 0 64 64" xml:space="preserve">
<path fill="#5B696E" opacity="1.000000" stroke="none" 
	d="
M1.000000,6.000000 
	C1.000000,4.344669 1.000000,2.689339 1.000000,1.017004 
	C22.333330,1.017004 43.666664,1.017004 65.000000,1.022144 
	C65.000000,2.351548 65.000000,3.675812 64.531342,5.499877 
	C43.041790,5.999786 22.020895,5.999893 1.000000,6.000000 
z"/>
<path fill="#F86861" opacity="1.000000" stroke="none" 
	d="
M65.000000,61.000000 
	C65.000000,62.324139 65.000000,63.648281 65.000000,64.979294 
	C43.666668,64.986160 22.333334,64.986160 1.000000,64.979248 
	C1.000000,63.648193 1.000000,62.324059 1.382288,60.588959 
	C6.403339,62.738174 10.718343,60.995567 15.092696,59.111908 
	C15.760053,59.090313 16.362570,59.136826 17.310062,59.544189 
	C19.436321,59.938946 21.217602,59.972851 23.452957,60.007458 
	C26.936789,60.006451 29.966547,60.004742 33.111816,60.086304 
	C33.227325,60.169567 33.636902,60.206799 33.636902,60.206799 
	C33.636902,60.206799 34.002750,60.002220 34.335506,60.003746 
	C35.111931,60.006359 35.555599,60.007446 36.300911,60.212761 
	C38.194832,60.831520 39.791023,61.615047 41.378735,61.598228 
	C49.253719,61.514782 57.126465,61.220192 65.000000,61.000000 
z"/>
<path fill="#5C6E6A" opacity="1.000000" stroke="none" 
	d="
M1.000000,6.375000 
	C22.020895,5.999893 43.041790,5.999786 64.531342,5.999839 
	C65.000000,6.750000 65.000000,7.500000 64.552078,8.625130 
	C60.697796,9.347693 57.291439,9.695127 53.458858,10.027536 
	C47.392288,9.689144 41.751938,9.365776 35.688126,9.034157 
	C33.159966,9.386493 31.055264,9.747079 28.561779,10.041546 
	C22.836000,7.821954 17.427052,6.870825 11.386266,8.998028 
	C7.625746,8.998932 4.312873,8.999466 1.000000,9.000000 
	C1.000000,8.250000 1.000000,7.500000 1.000000,6.375000 
z"/>
<path fill="#61953C" opacity="1.000000" stroke="none" 
	d="
M65.000000,27.000000 
	C65.000000,30.030594 65.000000,33.061188 64.542542,36.545860 
	C61.018272,36.981750 57.951466,36.963562 54.768330,36.599720 
	C51.763901,32.999977 52.583797,29.953325 55.612850,27.004755 
	C59.037533,27.002703 62.018764,27.001350 65.000000,27.000000 
z"/>
<path fill="#EC705D" opacity="1.000000" stroke="none" 
	d="
M65.000000,60.600002 
	C57.126465,61.220192 49.253719,61.514782 41.378735,61.598228 
	C39.791023,61.615047 38.194832,60.831520 36.311558,59.930916 
	C36.027557,59.257015 36.034546,59.069187 36.474857,58.931633 
	C41.430233,59.863525 45.851524,56.715183 50.567360,58.795902 
	C51.509533,59.211605 53.604393,57.014809 55.592186,56.019714 
	C59.011086,56.344524 62.005543,56.672264 65.000000,57.000000 
	C65.000000,58.066669 65.000000,59.133339 65.000000,60.600002 
z"/>
<path fill="#B9864F" opacity="1.000000" stroke="none" 
	d="
M65.000000,44.000000 
	C65.000000,46.042316 65.000000,48.084637 64.541977,50.562393 
	C60.443600,50.999554 56.803246,51.001278 53.093750,50.632103 
	C53.974239,48.185905 54.923870,46.110607 56.332439,44.018215 
	C59.527588,44.000744 62.263794,44.000374 65.000000,44.000000 
z"/>
<path fill="#5E7B5F" opacity="1.000000" stroke="none" 
	d="
M1.000000,19.000000 
	C1.000000,17.285625 1.000000,15.571250 1.440562,13.428095 
	C5.198503,12.668376 8.515882,12.337438 12.010018,12.337950 
	C11.830857,14.765309 11.474939,16.861217 10.657488,18.965456 
	C7.130637,18.982525 4.065319,18.991262 1.000000,19.000000 
z"/>
<path fill="#5C8950" opacity="1.000000" stroke="none" 
	d="
M65.000000,26.571537 
	C62.018764,27.001350 59.037533,27.002703 55.433617,26.682804 
	C54.262291,24.574749 53.713654,22.787945 53.615303,21.001066 
	C57.710392,21.000662 61.355198,21.000330 65.000000,21.000000 
	C65.000000,22.714357 65.000000,24.428717 65.000000,26.571537 
z"/>
<path fill="#6F973C" opacity="1.000000" stroke="none" 
	d="
M1.000000,41.000000 
	C1.000000,39.285625 1.000000,37.571247 1.457968,35.428421 
	C5.555120,35.002926 9.194304,35.005882 12.891289,35.371338 
	C11.668143,37.468544 10.387196,39.203243 8.655405,40.952614 
	C5.803042,40.978188 3.401521,40.989094 1.000000,41.000000 
z"/>
<path fill="#62963C" opacity="1.000000" stroke="none" 
	d="
M12.833488,35.008839 
	C9.194304,35.005882 5.555120,35.002926 1.457968,34.999985 
	C1.000000,33.611111 1.000000,32.222221 1.457920,30.416958 
	C5.554070,30.002388 9.192298,30.004194 12.891701,30.419983 
	C12.913079,32.225590 12.873283,33.617214 12.833488,35.008839 
z"/>
<path fill="#C88153" opacity="1.000000" stroke="none" 
	d="
M53.162891,51.003002 
	C56.803246,51.001278 60.443600,50.999554 64.541977,50.998917 
	C65.000000,52.714359 65.000000,54.428715 65.000000,56.571541 
	C62.005543,56.672264 59.011086,56.344524 55.435913,55.696106 
	C54.291096,53.917946 53.726994,52.460476 53.162891,51.003002 
z"/>
<path fill="#5D8752" opacity="1.000000" stroke="none" 
	d="
M1.000000,19.416666 
	C4.065319,18.991262 7.130637,18.982525 10.973640,19.141232 
	C12.111969,20.871780 12.472612,22.434885 12.383076,23.998093 
	C8.288597,23.998798 4.644299,23.999399 1.000000,24.000000 
	C1.000000,22.611111 1.000000,21.222221 1.000000,19.416666 
z"/>
<path fill="#8C9340" opacity="1.000000" stroke="none" 
	d="
M65.000000,43.583336 
	C62.263794,44.000374 59.527588,44.000744 56.015709,44.007980 
	C54.822865,43.957851 54.405697,43.900860 53.863220,43.694214 
	C53.561447,43.352234 53.369099,43.177395 53.095020,42.623077 
	C53.076180,41.157249 53.123180,40.088371 53.547844,39.050529 
	C57.617001,39.054375 61.308502,39.027187 65.000000,39.000000 
	C65.000000,40.388889 65.000000,41.777779 65.000000,43.583336 
z"/>
<path fill="#EA715D" opacity="1.000000" stroke="none" 
	d="
M15.027856,59.180008 
	C10.718343,60.995567 6.403339,62.738174 1.382288,60.088997 
	C1.000000,58.933331 1.000000,57.866661 1.399896,56.399506 
	C2.866788,55.998379 3.933783,55.997742 5.375486,55.998108 
	C6.499856,55.998375 7.249517,55.997639 8.350925,56.000465 
	C9.171449,56.016277 9.640224,56.028530 10.196396,56.397545 
	C11.865148,57.562878 13.446502,58.371441 15.027856,59.180008 
z"/>
<path fill="#5F8259" opacity="1.000000" stroke="none" 
	d="
M65.000000,20.600004 
	C61.355198,21.000330 57.710392,21.000662 53.554447,20.603767 
	C53.084061,19.138308 53.124821,18.070070 53.615837,17.001539 
	C57.710728,17.000830 61.355362,17.000416 65.000000,17.000000 
	C65.000000,18.066669 65.000000,19.133339 65.000000,20.600004 
z"/>
<path fill="#5E7B5F" opacity="1.000000" stroke="none" 
	d="
M65.000000,16.600004 
	C61.355362,17.000416 57.710728,17.000830 53.557583,16.646814 
	C53.421299,15.195951 53.793526,14.099520 54.613419,13.002396 
	C58.374058,13.001136 61.687027,13.000568 65.000000,13.000000 
	C65.000000,14.066669 65.000000,15.133339 65.000000,16.600004 
z"/>
<path fill="#5D7565" opacity="1.000000" stroke="none" 
	d="
M65.000000,12.600004 
	C61.687027,13.000568 58.374058,13.001136 54.551155,12.635440 
	C53.989174,11.526970 53.937126,10.784765 53.885078,10.042561 
	C57.291439,9.695127 60.697796,9.347693 64.552078,9.000130 
	C65.000000,10.066669 65.000000,11.133339 65.000000,12.600004 
z"/>
<path fill="#5D7367" opacity="1.000000" stroke="none" 
	d="
M11.833261,12.006499 
	C8.515882,12.337438 5.198503,12.668376 1.440562,12.999658 
	C1.000000,11.933331 1.000000,10.866661 1.000000,9.399996 
	C4.312873,8.999466 7.625746,8.998932 11.445601,9.371898 
	C11.912809,10.499098 11.873035,11.252799 11.833261,12.006499 
z"/>
<path fill="#5B8D4A" opacity="1.000000" stroke="none" 
	d="
M1.000000,24.375000 
	C4.644299,23.999399 8.288597,23.998798 12.443165,24.371157 
	C12.913284,25.496258 12.873135,26.248396 12.382821,27.000349 
	C8.288438,27.000107 4.644219,27.000053 1.000000,27.000000 
	C1.000000,26.250000 1.000000,25.500000 1.000000,24.375000 
z"/>
<path fill="#5B9242" opacity="1.000000" stroke="none" 
	d="
M1.000000,27.375000 
	C4.644219,27.000053 8.288438,27.000107 12.442940,27.373777 
	C12.912324,28.500261 12.871425,29.253132 12.830526,30.006001 
	C9.192298,30.004194 5.554070,30.002388 1.457920,30.000290 
	C1.000000,29.250000 1.000000,28.500000 1.000000,27.375000 
z"/>
<path fill="#AF894C" opacity="1.000000" stroke="none" 
	d="
M1.000000,49.000000 
	C1.000000,47.611004 1.000000,46.222004 1.374777,44.421005 
	C2.499152,44.012058 3.248750,44.015110 4.319986,44.218925 
	C6.426704,44.614559 8.211784,44.809441 9.997750,45.378159 
	C10.000209,46.499561 10.001782,47.247124 9.592783,48.007343 
	C6.454805,48.346664 3.727403,48.673332 1.000000,49.000000 
z"/>
<path fill="#BB854F" opacity="1.000000" stroke="none" 
	d="
M1.000000,49.333332 
	C3.727403,48.673332 6.454805,48.346664 9.948225,48.008568 
	C11.422535,48.000778 12.130828,48.004414 12.902481,48.380272 
	C12.922133,49.503227 12.878425,50.253971 12.384445,51.003334 
	C8.289450,51.001305 4.644725,51.000652 1.000000,51.000000 
	C1.000000,50.555553 1.000000,50.111111 1.000000,49.333332 
z"/>
<path fill="#929242" opacity="1.000000" stroke="none" 
	d="
M3.998349,44.018166 
	C3.248750,44.015110 2.499152,44.012058 1.374777,44.004501 
	C1.000000,43.250000 1.000000,42.500000 1.000000,41.375000 
	C3.401521,40.989094 5.803042,40.978188 9.034421,40.979004 
	C10.853984,41.662643 11.843689,42.334549 12.408365,43.005211 
	C9.321674,43.342030 6.660011,43.680099 3.998349,44.018166 
z"/>
<path fill="#78963D" opacity="1.000000" stroke="none" 
	d="
M65.000000,38.666668 
	C61.308502,39.027187 57.617001,39.054375 53.496632,38.720253 
	C53.673393,37.887756 54.279026,37.416565 54.884663,36.945374 
	C57.951466,36.963562 61.018272,36.981750 64.542542,36.999969 
	C65.000000,37.444447 65.000000,37.888889 65.000000,38.666668 
z"/>
<path fill="#C78153" opacity="1.000000" stroke="none" 
	d="
M1.000000,51.333332 
	C4.644725,51.000652 8.289450,51.001305 12.449334,51.334602 
	C12.920856,52.112854 12.877219,52.558460 12.624896,53.002831 
	C12.416210,53.001595 11.998326,53.003056 11.598434,53.003311 
	C10.132478,53.002579 9.066415,53.001598 7.625263,53.000305 
	C6.500007,53.000183 5.749837,53.000381 4.599883,53.001316 
	C3.133398,53.001369 2.066699,53.000687 1.000000,53.000000 
	C1.000000,52.555553 1.000000,52.111111 1.000000,51.333332 
z"/>
<path fill="#D57C57" opacity="1.000000" stroke="none" 
	d="
M1.000000,53.375000 
	C2.066699,53.000687 3.133398,53.001369 4.599984,53.376099 
	C5.000174,54.499130 5.000476,55.248116 5.000778,55.997101 
	C3.933783,55.997742 2.866788,55.998379 1.399896,55.999512 
	C1.000000,55.250000 1.000000,54.500000 1.000000,53.375000 
z"/>
<path fill="#000000" opacity="1.000000" stroke="none" 
	d="
M12.833582,53.004070 
	C12.877219,52.558460 12.920856,52.112854 12.899605,51.335976 
	C12.878425,50.253971 12.922133,49.503227 12.972189,48.008095 
	C12.930902,46.510586 12.883266,45.757469 12.898081,44.673351 
	C12.918152,43.897049 12.875773,43.451756 12.833395,43.006458 
	C11.843689,42.334549 10.853984,41.662643 9.485264,40.964340 
	C10.387196,39.203243 11.668143,37.468544 12.891289,35.371338 
	C12.873283,33.617214 12.913079,32.225590 12.891701,30.419983 
	C12.871425,29.253132 12.912324,28.500261 12.893105,27.373964 
	C12.873135,26.248396 12.913284,25.496258 12.893345,24.371054 
	C12.472612,22.434885 12.111969,20.871780 11.435173,19.132900 
	C11.474939,16.861217 11.830857,14.765309 12.010018,12.337950 
	C11.873035,11.252799 11.912809,10.499098 11.893248,9.371529 
	C17.427052,6.870825 22.836000,7.821954 28.717430,10.354866 
	C30.692530,11.736100 32.123196,12.737892 33.553860,13.739685 
	C34.406433,12.173925 35.259010,10.608166 36.111588,9.042408 
	C41.751938,9.365776 47.392288,9.689144 53.458862,10.027536 
	C53.937126,10.784765 53.989174,11.526970 54.103485,12.636131 
	C53.793526,14.099520 53.421299,15.195951 53.107330,16.647108 
	C53.124821,18.070070 53.084061,19.138308 53.104156,20.603844 
	C53.713654,22.787945 54.262291,24.574749 54.990166,26.683506 
	C52.583797,29.953325 51.763901,32.999977 54.768330,36.599720 
	C54.279026,37.416565 53.673393,37.887756 53.118973,38.689224 
	C53.123180,40.088371 53.076180,41.157249 53.086243,42.870209 
	C53.143311,43.514294 53.494324,43.862694 53.494324,43.862694 
	C53.494324,43.862694 53.988529,43.843872 53.988529,43.843872 
	C54.405697,43.900860 54.822865,43.957851 55.556763,44.025078 
	C54.923870,46.110607 53.974239,48.185905 53.093750,50.632103 
	C53.726994,52.460476 54.291096,53.917946 55.011475,55.699028 
	C53.604393,57.014809 51.509533,59.211605 50.567360,58.795902 
	C45.851524,56.715183 41.430233,59.863525 36.455910,58.616474 
	C35.947132,57.835514 35.890625,57.419991 35.905350,56.680996 
	C36.020733,55.918610 36.064888,55.479687 36.379139,54.939484 
	C37.043812,54.226963 37.438389,53.615726 37.900261,52.673443 
	C37.923393,51.896168 37.879227,51.449936 37.903587,50.630287 
	C37.924919,49.501778 37.877724,48.746693 37.848789,47.731880 
	C37.588905,47.281448 37.310764,47.090744 37.032127,46.933731 
	C37.031628,46.967422 37.086380,46.925106 37.055168,46.559616 
	C36.717228,44.810482 36.410503,43.426830 36.462494,42.005455 
	C37.157028,40.985710 37.492847,40.003685 37.891243,38.687664 
	C37.913422,37.904190 37.873028,37.454720 37.891350,36.674286 
	C37.911232,35.898373 37.872406,35.453423 37.897499,34.635349 
	C37.919582,33.508568 37.877747,32.754910 37.897987,31.604153 
	C37.917221,30.139324 37.874382,29.071598 37.886986,27.607368 
	C36.832558,26.492840 35.722694,25.774813 34.612831,25.056786 
	C34.131401,26.039143 33.649967,27.021502 33.106735,28.401142 
	C33.084324,29.866606 33.123711,30.934786 33.012463,32.300407 
	C32.629421,33.401413 32.397015,34.204979 32.042831,35.270607 
	C31.668959,36.023533 31.416862,36.514400 31.095005,37.232635 
	C31.025246,37.460003 30.940382,37.928032 30.642929,38.071522 
	C28.860867,39.456692 27.376259,40.698368 25.509146,41.965435 
	C22.135481,41.681591 21.169184,43.369129 21.103661,46.338753 
	C21.083422,47.116920 21.125904,47.563133 21.101315,48.380798 
	C21.077608,49.502865 21.120972,50.253479 21.102169,51.305870 
	C21.323828,52.085621 21.607653,52.563591 22.004517,53.316555 
	C22.467443,54.062958 22.817329,54.534367 23.100214,55.336624 
	C23.077261,56.112976 23.121309,56.558475 23.093189,57.220428 
	C23.021021,57.436878 22.958982,57.888973 22.576370,57.936523 
	C20.450869,58.383827 18.707977,58.783581 16.965086,59.183334 
	C16.362570,59.136826 15.760053,59.090313 15.092696,59.111908 
	C13.446502,58.371441 11.865148,57.562878 10.528566,56.373169 
	C11.195611,55.363129 11.617882,54.734238 12.286581,54.012161 
	C12.633202,53.614010 12.733392,53.309040 12.833582,53.004070 
M41.038864,45.670765 
	C41.081985,46.117783 41.125107,46.564804 41.041500,47.671410 
	C41.084015,48.114941 41.126530,48.558475 41.035564,49.666012 
	C41.078873,50.113056 41.122185,50.560104 41.033890,51.687618 
	C41.317688,52.472198 41.601486,53.256779 42.220448,54.704262 
	C43.969341,55.068310 45.718235,55.432362 47.467133,55.796413 
	C47.350639,55.180817 47.234146,54.565220 47.023872,53.215199 
	C46.960667,52.479248 46.897465,51.743301 46.842358,50.421139 
	C46.505638,49.948044 46.168919,49.474949 45.955273,48.397442 
	C45.674461,47.916416 45.393650,47.435387 45.018959,46.303684 
	C44.957638,45.870754 44.896317,45.437824 44.928432,44.251385 
	C43.322639,42.749336 41.796078,41.642433 41.038864,45.670765 
M24.827644,27.098234 
	C23.814911,26.365656 22.802176,25.633078 21.789442,24.900497 
	C21.569967,25.425549 21.350494,25.950598 21.131020,26.475649 
	C22.222326,26.888229 23.313631,27.300810 24.827644,27.098234 
z"/>
<path fill="#E3755B" opacity="1.000000" stroke="none" 
	d="
M35.834118,57.004463 
	C35.890625,57.419991 35.947132,57.835514 36.022591,58.566200 
	C36.034546,59.069187 36.027557,59.257015 36.009918,59.726688 
	C35.555599,60.007446 35.111931,60.006359 34.083885,60.002903 
	C33.331768,60.001369 33.164036,60.002201 32.996304,60.003036 
	C29.966547,60.004742 26.936789,60.006451 23.448479,59.654366 
	C22.979610,58.830040 22.969296,58.359509 22.958982,57.888973 
	C22.958982,57.888973 23.021021,57.436878 23.544071,57.219471 
	C27.989454,57.002865 31.911787,57.003666 35.834118,57.004463 
z"/>
<path fill="#EA715D" opacity="1.000000" stroke="none" 
	d="
M22.576370,57.936523 
	C22.969296,58.359509 22.979610,58.830040 22.994404,59.653667 
	C21.217602,59.972851 19.436321,59.938946 17.310062,59.544186 
	C18.707977,58.783581 20.450869,58.383827 22.576370,57.936523 
z"/>
<path fill="#EA715D" opacity="1.000000" stroke="none" 
	d="
M33.111816,60.086304 
	C33.164036,60.002201 33.331768,60.001369 33.751129,60.001377 
	C34.002750,60.002220 33.636902,60.206799 33.636902,60.206799 
	C33.636902,60.206799 33.227325,60.169567 33.111816,60.086304 
z"/>
<path fill="#5D7565" opacity="1.000000" stroke="none" 
	d="
M35.688126,9.034157 
	C35.259010,10.608166 34.406433,12.173925 33.553860,13.739685 
	C32.123196,12.737892 30.692530,11.736100 29.106213,10.420986 
	C31.055264,9.747079 33.159966,9.386493 35.688126,9.034157 
z"/>
<path fill="#9E8E46" opacity="1.000000" stroke="none" 
	d="
M53.863220,43.694214 
	C53.988529,43.843872 53.494324,43.862694 53.494324,43.862694 
	C53.494324,43.862694 53.143311,43.514294 53.152084,43.267166 
	C53.369099,43.177395 53.561447,43.352234 53.863220,43.694214 
z"/>
<path fill="#D57C57" opacity="1.000000" stroke="none" 
	d="
M12.040154,54.105347 
	C11.617882,54.734238 11.195611,55.363129 10.441170,56.016403 
	C9.640224,56.028530 9.171449,56.016277 8.351236,55.626625 
	C7.999984,54.499691 8.000168,53.750153 8.000351,53.000618 
	C9.066415,53.001598 10.132478,53.002579 11.604498,53.278965 
	C12.020353,53.738026 12.030254,53.921688 12.040154,54.105347 
z"/>
<path fill="#D07E55" opacity="1.000000" stroke="none" 
	d="
M7.625263,53.000305 
	C8.000168,53.750153 7.999984,54.499691 7.999489,55.623062 
	C7.249517,55.997639 6.499856,55.998375 5.375487,55.998108 
	C5.000476,55.248116 5.000174,54.499130 4.999770,53.375362 
	C5.749837,53.000381 6.500007,53.000183 7.625263,53.000305 
z"/>
<path fill="#9E8E46" opacity="1.000000" stroke="none" 
	d="
M12.408365,43.005211 
	C12.875773,43.451756 12.918152,43.897049 12.545328,44.671673 
	C11.419039,45.002106 10.707952,45.003212 9.996865,45.004318 
	C8.211784,44.809441 6.426704,44.614559 4.319986,44.218925 
	C6.660011,43.680099 9.321674,43.342030 12.408365,43.005211 
z"/>
<path fill="#A88C49" opacity="1.000000" stroke="none" 
	d="
M9.997750,45.378159 
	C10.707952,45.003212 11.419039,45.002106 12.482879,45.002678 
	C12.883266,45.757469 12.930902,46.510586 12.908829,47.635876 
	C12.130828,48.004414 11.422535,48.000778 10.358799,47.995918 
	C10.001782,47.247124 10.000209,46.499561 9.997750,45.378159 
z"/>
<path fill="#D07E55" opacity="1.000000" stroke="none" 
	d="
M12.286583,54.012161 
	C12.030254,53.921688 12.020353,53.738026 12.004390,53.278709 
	C11.998326,53.003056 12.416210,53.001595 12.624896,53.002831 
	C12.733392,53.309040 12.633202,53.614010 12.286583,54.012161 
z"/>
<path fill="#A38D47" opacity="1.000000" stroke="none" 
	d="
M21.166380,46.006794 
	C21.169184,43.369129 22.135481,41.681591 25.972569,41.977951 
	C29.913591,41.991108 33.008686,42.017143 36.103779,42.043182 
	C36.410503,43.426830 36.717228,44.810482 36.629021,46.583351 
	C34.822479,46.986790 33.410870,47.001007 31.655468,46.804253 
	C27.929914,46.397781 24.548147,46.202286 21.166380,46.006794 
z"/>
<path fill="#BB854F" opacity="1.000000" stroke="none" 
	d="
M31.999256,47.015228 
	C33.410870,47.001007 34.822479,46.986790 36.660236,46.948837 
	C37.086380,46.925106 37.031628,46.967422 37.142101,47.131981 
	C37.421032,47.548344 37.613686,47.780033 37.830528,47.991608 
	C37.877724,48.746693 37.924919,49.501778 37.446869,50.629250 
	C31.669191,51.002457 26.416765,51.003273 21.164337,51.004089 
	C21.120972,50.253479 21.077608,49.502865 21.541414,48.379189 
	C25.365475,47.675827 28.682365,47.345528 31.999256,47.015228 
z"/>
<path fill="#C78153" opacity="1.000000" stroke="none" 
	d="
M21.102169,51.305870 
	C26.416765,51.003273 31.669191,51.002457 37.378342,51.002670 
	C37.879227,51.449936 37.923393,51.896168 37.443741,52.672462 
	C31.910442,53.015541 26.900961,53.028553 21.891478,53.041565 
	C21.607653,52.563591 21.323828,52.085621 21.102169,51.305870 
z"/>
<path fill="#8C9340" opacity="1.000000" stroke="none" 
	d="
M36.462494,42.005455 
	C33.008686,42.017143 29.913591,41.991108 26.355076,41.952560 
	C27.376259,40.698368 28.860867,39.456692 30.965218,38.284599 
	C33.666195,38.576683 35.747433,38.799175 37.828671,39.021664 
	C37.492847,40.003685 37.157028,40.985710 36.462494,42.005455 
z"/>
<path fill="#D07E55" opacity="1.000000" stroke="none" 
	d="
M22.004517,53.316555 
	C26.900961,53.028553 31.910442,53.015541 37.376442,53.003510 
	C37.438389,53.615726 37.043812,54.226963 35.910927,54.931141 
	C31.170818,55.017982 27.169018,55.011883 23.167217,55.005779 
	C22.817329,54.534367 22.467443,54.062958 22.004517,53.316555 
z"/>
<path fill="#D97A58" opacity="1.000000" stroke="none" 
	d="
M23.100214,55.336624 
	C27.169018,55.011883 31.170818,55.017982 35.640831,55.032425 
	C36.064888,55.479687 36.020733,55.918610 35.905350,56.680996 
	C31.911787,57.003666 27.989454,57.002865 23.616241,57.003021 
	C23.121309,56.558475 23.077261,56.112976 23.100214,55.336624 
z"/>
<path fill="#AF894C" opacity="1.000000" stroke="none" 
	d="
M31.655468,46.804253 
	C28.682365,47.345528 25.365475,47.675827 21.608484,48.007736 
	C21.125904,47.563133 21.083422,47.116920 21.103661,46.338753 
	C24.548147,46.202286 27.929914,46.397781 31.655468,46.804253 
z"/>
<path fill="#5D943F" opacity="1.000000" stroke="none" 
	d="
M33.163101,32.002968 
	C33.123711,30.934786 33.084324,29.866606 33.495186,28.400288 
	C35.240807,28.002722 36.536175,28.003296 37.831547,28.003870 
	C37.874382,29.071598 37.917221,30.139324 37.509125,31.603607 
	C35.759827,32.001095 34.461464,32.002029 33.163101,32.002968 
z"/>
<path fill="#C88153" opacity="1.000000" stroke="none" 
	d="
M46.834259,51.007351 
	C46.897465,51.743301 46.960667,52.479248 46.634995,53.592133 
	C44.792503,53.993168 43.338894,54.017262 41.885284,54.041359 
	C41.601486,53.256779 41.317688,52.472198 41.504326,51.345711 
	C43.594593,51.004982 45.214424,51.006165 46.834259,51.007351 
z"/>
<path fill="#62963C" opacity="1.000000" stroke="none" 
	d="
M33.012466,32.300407 
	C34.461464,32.002029 35.759827,32.001095 37.447052,32.000706 
	C37.877747,32.754910 37.919582,33.508568 37.492996,34.633392 
	C35.404587,35.005882 33.784599,35.007210 32.164608,35.008537 
	C32.397015,34.204979 32.629421,33.401413 33.012466,32.300407 
z"/>
<path fill="#5A8F47" opacity="1.000000" stroke="none" 
	d="
M37.886986,27.607368 
	C36.536175,28.003296 35.240807,28.002722 33.556984,28.003004 
	C33.649967,27.021502 34.131401,26.039143 34.612831,25.056786 
	C35.722694,25.774813 36.832558,26.492840 37.886986,27.607368 
z"/>
<path fill="#78963D" opacity="1.000000" stroke="none" 
	d="
M37.891243,38.687664 
	C35.747433,38.799175 33.666195,38.576683 31.262669,38.141113 
	C30.940382,37.928032 31.025246,37.460003 31.511589,37.231441 
	C33.942833,37.003666 35.887737,37.004456 37.832638,37.005245 
	C37.873028,37.454720 37.913422,37.904190 37.891243,38.687664 
z"/>
<path fill="#6F973C" opacity="1.000000" stroke="none" 
	d="
M37.891350,36.674286 
	C35.887737,37.004456 33.942833,37.003666 31.581348,37.004074 
	C31.416862,36.514400 31.668959,36.023533 32.042831,35.270603 
	C33.784599,35.007210 35.404587,35.005882 37.429077,35.006516 
	C37.872406,35.453423 37.911232,35.898373 37.891350,36.674286 
z"/>
<path fill="#BB854F" opacity="1.000000" stroke="none" 
	d="
M46.838310,50.714245 
	C45.214424,51.006165 43.594593,51.004982 41.570129,51.005474 
	C41.122185,50.560104 41.078873,50.113056 41.490128,49.333389 
	C43.240528,49.001133 44.536366,49.001492 45.832199,49.001854 
	C46.168919,49.474949 46.505638,49.948044 46.838310,50.714245 
z"/>
<path fill="#D57C57" opacity="1.000000" stroke="none" 
	d="
M42.052864,54.372810 
	C43.338894,54.017262 44.792503,53.993168 46.681885,53.959347 
	C47.234146,54.565220 47.350639,55.180817 47.467133,55.796413 
	C45.718235,55.432362 43.969341,55.068310 42.052864,54.372810 
z"/>
<path fill="#5A8F47" opacity="1.000000" stroke="none" 
	d="
M24.616291,27.405811 
	C23.313631,27.300810 22.222326,26.888229 21.131020,26.475649 
	C21.350494,25.950598 21.569967,25.425549 21.789442,24.900497 
	C22.802176,25.633078 23.814911,26.365656 24.616291,27.405811 
z"/>
<path fill="#B9864F" opacity="1.000000" stroke="none" 
	d="
M45.893738,48.699646 
	C44.536366,49.001492 43.240528,49.001133 41.556870,49.001389 
	C41.126530,48.558475 41.084015,48.114941 41.498528,47.338524 
	C43.007984,46.988544 44.060410,46.971451 45.112839,46.954357 
	C45.393650,47.435387 45.674461,47.916416 45.893738,48.699646 
z"/>
<path fill="#A88C49" opacity="1.000000" stroke="none" 
	d="
M45.065899,46.629021 
	C44.060410,46.971451 43.007984,46.988544 41.561890,47.008728 
	C41.125107,46.564804 41.081985,46.117783 41.469276,45.337090 
	C42.878124,45.003906 43.856560,45.004398 44.834995,45.004894 
	C44.896317,45.437824 44.957638,45.870754 45.065899,46.629021 
z"/>
<path fill="#9E8E46" opacity="1.000000" stroke="none" 
	d="
M44.881714,44.628139 
	C43.856560,45.004398 42.878124,45.003906 41.532784,45.004620 
	C41.796078,41.642433 43.322639,42.749336 44.881714,44.628139 
z"/>
<path fill="#AF894C" opacity="1.000000" stroke="none" 
	d="
M37.848789,47.731880 
	C37.613686,47.780033 37.421032,47.548344 37.142601,47.098289 
	C37.310764,47.090744 37.588905,47.281448 37.848789,47.731880 
z"/>
</svg>